HIERARCHY
ROOT Hips
{
    OFFSET 0.000000 0.000000 0.000000
    CHANNELS 6 Xposition Yposition Zposition Zrotation Xrotation Yrotation
    JOINT Spine
    {
        OFFSET -0.000000 7.236184 0.000000
        CHANNELS 3 Zrotation Xrotation Yrotation
        JOINT Spine1
        {
            OFFSET -0.000000 20.420147 0.000000
            CHANNELS 3 Zrotation Xrotation Yrotation
            JOINT Neck
            {
                OFFSET -0.000000 20.336288 1.848754
                CHANNELS 3 Zrotation Xrotation Yrotation
                JOINT Head
                {
                    OFFSET -0.000000 12.354461 -1.764923
                    CHANNELS 3 Zrotation Xrotation Yrotation
                    End Site
                    {
                        OFFSET -0.000000 22.061537 0.000000
                    }
                }
            }
            JOINT LeftShoulder
            {
                OFFSET 3.573296 18.396038 -0.314103
                CHANNELS 3 Zrotation Xrotation Yrotation
                JOINT LeftArm
                {
                    OFFSET 10.880760 0.000000 0.000000
                    CHANNELS 3 Zrotation Xrotation Yrotation
                    JOINT LeftForeArm
                    {
                        OFFSET 27.185530 0.000000 0.000000
                        CHANNELS 3 Zrotation Xrotation Yrotation
                        JOINT LeftHand
                        {
                            OFFSET 27.825975 0.000000 0.000000
                            CHANNELS 3 Zrotation Xrotation Yrotation
                            End Site
                            {
                                OFFSET 13.236923 0.000000 0.000000
                            }
                        }
                    }
                }
            }
            JOINT RightShoulder
            {
                OFFSET -3.474926 18.396038 -0.314103
                CHANNELS 3 Zrotation Xrotation Yrotation
                JOINT RightArm
                {
                    OFFSET -10.880760 0.000000 0.000000
                    CHANNELS 3 Zrotation Xrotation Yrotation
                    JOINT RightForeArm
                    {
                        OFFSET -27.185530 0.000000 0.000000
                        CHANNELS 3 Zrotation Xrotation Yrotation
                        JOINT RightHand
                        {
                            OFFSET -27.825975 0.000000 0.000000
                            CHANNELS 3 Zrotation Xrotation Yrotation
                            End Site
                            {
                                OFFSET -13.236923 0.000000 0.000000
                            }
                        }
                    }
                }
            }
        }
    }
    JOINT LeftUpLeg
    {
        OFFSET 8.824615 0.000000 0.000000
        CHANNELS 3 Zrotation Xrotation Yrotation
        JOINT LeftLeg
        {
            OFFSET -0.000000 -35.111282 0.000000
            CHANNELS 3 Zrotation Xrotation Yrotation
            JOINT LeftFoot
            {
                OFFSET -0.000000 -42.324711 0.000000
                CHANNELS 3 Zrotation Xrotation Yrotation
                JOINT LeftToeBase
                {
                    OFFSET -0.000000 -5.735999 13.236923
                    CHANNELS 3 Zrotation Xrotation Yrotation
                    End Site
                    {
                        OFFSET -0.000000 0.000000 3.529846
                    }
                }
            }
        }
    }
    JOINT RightUpLeg
    {
        OFFSET -8.824615 0.000000 0.000000
        CHANNELS 3 Zrotation Xrotation Yrotation
        JOINT RightLeg
        {
            OFFSET -0.000000 -35.111282 0.000000
            CHANNELS 3 Zrotation Xrotation Yrotation
            JOINT RightFoot
            {
                OFFSET -0.000000 -42.324711 0.000000
                CHANNELS 3 Zrotation Xrotation Yrotation
                JOINT RightToeBase
                {
                    OFFSET -0.000000 -5.735999 13.236923
                    CHANNELS 3 Zrotation Xrotation Yrotation
                    End Site
                    {
                        OFFSET -0.000000 0.000000 3.529846
                    }
                }
            }
        }
    }
}
MOTION
Frames:    8
Frame Time:    0.008333
-2.228107    82.051865    95.487579    0.694752    -0.350914    -177.894104    0.701408    -12.891093    2.055331    -5.431547    1.711308    2.057313    10.263606    10.003521    -6.072300    4.928734    21.565296    -7.173711    3.471415    18.518702    -5.617328    -54.197735    44.334061    -28.131912    -5.138623    -8.927980    -12.135480    17.130627    -8.608014    5.773344    -14.287472    -2.868286    3.112943    27.992218    -29.848057    46.138020    -30.876268    -21.125790    25.957325    -41.637852    -10.623240    -9.530065    4.007401    2.071986    1.592005    -2.660015    6.440989    1.199023    -0.502788    -8.014579    -8.507445    0.335100    0.607135    -0.371043    -2.222501    4.223626    0.789562    12.142860    9.178954    -12.621876    0.000000    0.000000    0.000000    0.000000    0.000000    0.000000    
-2.241269    82.048622    95.490669    0.672973    -0.333646    -178.179626    0.789943    -12.917953    2.011648    -5.262248    1.792150    2.004614    10.241373    9.895315    -5.752055    4.266629    21.659395    -6.819301    3.462861    18.576151    -5.605364    -54.526905    44.261066    -27.795353    -5.234731    -9.043942    -11.913200    16.830538    -8.717526    5.922121    -14.422903    -2.855649    3.181291    26.572124    -28.491848    45.811440    -31.204716    -20.964685    27.070799    -41.456566    -10.348775    -8.775483    3.945925    2.119182    1.676123    -2.644563    6.464457    1.403327    -0.502642    -8.045916    -8.520614    0.332992    0.635604    -0.368690    -2.284587    4.191123    0.903621    12.140879    9.221439    -12.511060    0.000000    0.000000    0.000000    0.000000    0.000000    0.000000    
-2.253972    82.045685    95.494080    0.651035    -0.316013    -178.468170    0.887559    -12.941189    1.971358    -5.102855    1.872320    1.954144    10.223992    9.791243    -5.429961    3.608475    21.744576    -6.461711    3.459834    18.626745    -5.599722    -54.805573    44.213230    -27.489120    -5.317893    -9.085935    -11.700961    16.545109    -8.755576    6.044489    -14.588838    -2.861429    3.251689    25.137129    -27.132799    45.505672    -31.546196    -20.732357    28.247370    -41.275768    -9.990378    -7.952432    3.884164    2.165479    1.760135    -2.629391    6.489586    1.610901    -0.502902    -8.077392    -8.534081    0.332044    0.668105    -0.367619    -2.346994    4.159366    1.018661    12.138710    9.261611    -12.398699    0.000000    0.000000    0.000000    0.000000    0.000000    0.000000    
-2.265887    82.043152    95.497856    0.629237    -0.298995    -178.752960    0.992096    -12.960879    1.935248    -4.956811    1.950249    1.906989    10.212069    9.692879    -5.112957    2.968240    21.819342    -6.108911    3.463065    18.668903    -5.600636    -55.029118    44.193378    -27.217632    -5.385418    -9.041982    -11.502770    16.280439    -8.710178    6.136574    -14.782366    -2.884944    3.321459    23.713060    -25.798269    45.225765    -31.902153    -20.429893    29.461021    -41.096577    -9.548868    -7.076324    3.823373    2.209113    1.841838    -2.614931    6.515755    1.816844    -0.503492    -8.108123    -8.547234    0.332213    0.703844    -0.367783    -2.408388    4.128430    1.131869    12.136191    9.298518    -12.287552    0.000000    0.000000    0.000000    0.000000    0.000000    0.000000    
-2.276923    82.041100    95.502052    0.607239    -0.282860    -179.031647    1.102502    -12.977310    1.903386    -4.825168    2.025870    1.863399    10.206022    9.600238    -4.803017    2.349983    21.883865    -5.763425    3.473328    18.702219    -5.607613    -55.197197    44.203232    -26.981247    -5.436180    -8.903663    -11.318871    16.035820    -8.572779    6.197629    -15.002007    -2.925636    3.389572    22.298241    -24.489740    44.967838    -32.282265    -20.057880    30.699602    -40.920662    -9.022387    -6.152033    3.763449    2.249553    1.920261    -2.601064    6.542840    2.020252    -0.504595    -8.137931    -8.560492    0.333411    0.742309    -0.369084    -2.468757    4.098410    1.241946    12.133215    9.331961    -12.178529    0.000000    0.000000    0.000000    0.000000    0.000000    0.000000    
-2.286779    82.039566    95.506706    0.585455    -0.268255    -179.298294    1.216462    -12.990880    1.876286    -4.710006    2.098595    1.824135    10.205805    9.514064    -4.506092    1.766087    21.937054    -5.432235    3.490595    18.725512    -5.619960    -55.306664    44.244255    -26.783478    -5.469401    -8.667541    -11.151940    15.812962    -8.339871    6.226987    -15.243647    -2.981751    3.454139    20.906303    -23.222502    44.729736    -32.693039    -19.624403    31.931894    -40.755154    -8.418411    -5.198203    3.705706    2.285427    1.993676    -2.588171    6.570409    2.216643    -0.506033    -8.166073    -8.573332    0.335427    0.782452    -0.371289    -2.526788    4.069552    1.346409    12.129800    9.361275    -12.074025    0.000000    0.000000    0.000000    0.000000    0.000000    0.000000    
-2.295344    82.038567    95.511917    0.563723    -0.255407    -179.549484    1.332128    -13.001575    1.854040    -4.612116    2.167935    1.789613    10.211246    9.434115    -4.225420    1.223414    21.979141    -5.119328    3.515031    18.738197    -5.637031    -55.357410    44.316414    -26.624990    -5.485659    -8.333702    -11.002208    15.609895    -8.011611    6.224732    -15.504156    -3.050564    3.514047    19.536978    -21.998493    44.506271    -33.144508    -19.137693    33.134151    -40.610100    -7.743432    -4.228963    3.650324    2.316021    2.060961    -2.576076    6.598442    2.403982    -0.508058    -8.192292    -8.585975    0.337925    0.822291    -0.374027    -2.582256    4.042184    1.443661    12.126156    9.386103    -11.975362    0.000000    0.000000    0.000000    0.000000    0.000000    0.000000    
-2.302521    82.038078    95.517754    0.541898    -0.244399    -179.781616    1.447586    -13.009721    1.836837    -4.532256    2.234030    1.760197    10.222465    9.360253    -3.964321    0.728651    22.009529    -4.828766    3.546223    18.739662    -5.658385    -55.348923    44.418816    -26.506359    -5.485708    -7.905972    -10.870101    15.424263    -7.591847    6.191794    -15.779811    -3.129219    3.568913    18.190674    -20.819935    44.291695    -33.643864    -18.607861    34.281075    -40.498951    -7.007383    -3.259463    3.597595    2.340770    2.120872    -2.564821    6.626796    2.579700    -0.510546    -8.216229    -8.598022    0.340568    0.861095    -0.376927    -2.634965    4.016670    1.531951    12.122561    9.406244    -11.883775    0.000000    0.000000    0.000000    0.000000    0.000000    0.000000    
